<!DOCTYPE svg PUBLIC "-//W3C//DTD SVG 20010904//EN" "http://www.w3.org/TR/2001/REC-SVG-20010904/DTD/svg10.dtd">
<svg version="1.0" xmlns="http://www.w3.org/2000/svg" width="250px" height="99px" viewBox="0 0 2500 990" preserveAspectRatio="xMidYMid meet">
<g id="layer101" fill="#ffffff" stroke="none">
 <path d="M1945 799 c-126 -24 -128 -25 -122 -49 6 -24 -4 -25 -44 -5 -35 19 -45 15 -53 -22 -12 -50 -59 -157 -79 -180 -10 -12 -16 -26 -12 -32 3 -7 -2 -11 -13 -11 -16 0 -20 -7 -20 -36 0 -19 -2 -36 -3 -38 -2 -1 -30 0 -61 2 -50 3 -58 7 -58 24 0 11 18 36 40 55 29 27 40 44 40 65 0 16 4 38 10 48 8 15 0 31 -45 86 -30 36 -55 75 -55 85 0 15 -7 19 -33 19 -27 0 -60 -21 -173 -108 -77 -59 -174 -125 -216 -146 l-75 -38 -316 -6 c-356 -6 -323 3 -336 -87 l-6 -40 -35 90 c-34 87 -60 115 -73 81 -4 -9 9 -56 27 -106 39 -105 45 -98 -79 -102 l-70 -3 0 -55 c0 -51 2 -55 25 -57 14 -1 73 -5 132 -8 99 -6 107 -8 110 -28 2 -17 11 -23 41 -25 26 -2 37 -8 37 -19 0 -13 9 -15 51 -11 28 3 55 11 59 18 7 11 79 12 372 7 347 -7 364 -8 377 -27 11 -17 25 -20 91 -20 69 0 78 -2 83 -20 3 -13 14 -20 30 -20 19 0 26 6 31 30 4 21 11 30 25 30 10 0 24 7 31 15 10 12 40 15 144 15 109 1 138 4 171 20 22 11 50 19 62 20 12 0 25 5 28 10 3 6 32 10 64 10 49 0 59 -3 57 -17 -2 -23 33 -31 150 -32 70 -1 105 3 112 12 13 15 6 141 -8 145 -15 5 -12 59 3 65 8 3 12 25 12 63 l0 59 -57 23 c-97 38 -114 39 -132 6 -13 -24 -15 -26 -16 -9 -1 11 -11 76 -23 145 l-22 125 -40 1 c-22 1 -85 -7 -140 -17z m-105 -322 c0 -27 -22 -42 -56 -38 -22 2 -24 31 -4 51 16 16 25 18 40 10 11 -6 20 -16 20 -23z"/>
 </g>

</svg>